<?xml version="1.0" encoding="utf-8"?>
<!-- Generator: Adobe Illustrator 23.0.3, SVG Export Plug-In . SVG Version: 6.00 Build 0)  -->
<svg version="1.1" id="Layer_1" xmlns="http://www.w3.org/2000/svg" xmlns:xlink="http://www.w3.org/1999/xlink" x="0px" y="0px"
	 viewBox="0 0 99 99" style="enable-background:new 0 0 99 99;" xml:space="preserve">
<style type="text/css">
	.st0{fill:#999999;}
	.st1{fill-rule:evenodd;clip-rule:evenodd;fill:#999999;}
</style>
<g>
	<path class="st0" d="M49.5,0c13.7,0,26,5.5,35,14.5S99,35.8,99,49.5s-5.5,26-14.5,35S63.2,99,49.5,99s-26-5.5-35-14.5
		S0,63.2,0,49.5s5.5-26,14.5-35S35.8,0,49.5,0L49.5,0z M81.8,17.2C73.5,9,62.1,3.9,49.5,3.9S25.5,9,17.2,17.3
		C9,25.5,3.9,36.9,3.9,49.5s5.1,24,13.4,32.3S37,95.2,49.6,95.2s24-5.1,32.3-13.4s13.4-19.7,13.4-32.3
		C95.2,36.9,90.1,25.5,81.8,17.2L81.8,17.2z"/>
	<path class="st1" d="M53.3,39.4v-4.1c0-1.9,1.3-2.4,2.2-2.4s5.7,0,5.7,0v-8.7h-7.8c-8.7,0-10.6,6.4-10.6,10.6v4.6h-5v6.1v4h5.1
		c0,11.5,0,25.3,0,25.3H53c0,0,0-14,0-25.3h7.5l0.3-4l0.6-6.1C61.4,39.4,53.3,39.4,53.3,39.4z"/>
</g>
</svg>
