<?xml version="1.0" encoding="utf-8"?>
<!-- Generator: Adobe Illustrator 23.0.3, SVG Export Plug-In . SVG Version: 6.00 Build 0)  -->
<svg version="1.1" id="Layer_1" xmlns="http://www.w3.org/2000/svg" xmlns:xlink="http://www.w3.org/1999/xlink" x="0px" y="0px"
	 viewBox="0 0 99 99" style="enable-background:new 0 0 99 99;" xml:space="preserve">
<style type="text/css">
	.st0{fill:#262626;}
	.st1{fill-rule:evenodd;clip-rule:evenodd;fill:#262626;}
</style>
<path class="st0" d="M50.2-0.1c13.7,0,26,5.6,35,14.5c9,9,14.5,21.4,14.5,35c0,13.7-5.5,26-14.5,35c-9,8.9-21.3,14.5-35,14.5
	c-13.7,0-26-5.6-35-14.5c-9-9-14.5-21.4-14.5-35c0-13.7,5.5-26.1,14.5-35C24.1,5.5,36.5-0.1,50.2-0.1L50.2-0.1z M82.5,17.2
	C74.2,8.9,62.8,3.8,50.2,3.8c-12.6,0-24,5.1-32.3,13.4C9.6,25.4,4.5,36.8,4.5,49.5c0,12.6,5.1,24,13.4,32.3
	c8.3,8.3,19.7,13.4,32.3,13.4c12.6,0,24-5.1,32.3-13.4c8.3-8.3,13.4-19.7,13.4-32.3C95.8,36.8,90.7,25.4,82.5,17.2L82.5,17.2z"/>
<path class="st1" d="M74.9,61.9L74.9,61.9L74.9,61.9C74.9,61.8,74.9,61.8,74.9,61.9L74.9,61.9c-0.7-0.5-1.3-0.5-1.7-0.6h0
	c-2.6-0.9-4.9-2.6-6.6-4.8c-0.9-1.2-1.8-2.5-2.3-3.9l0,0c-0.2-0.6-0.2-1.3,0.1-1.7h0.1c0.5-0.7,1.3-1.1,2.2-1.5l0,0
	c1-0.3,2.1-0.8,3.1-1.6l0,0c0.2-0.1,0.4-0.3,0.5-0.6c0-0.1,0.1-0.1,0.1-0.2c0.1-0.2,0.1-0.5-0.1-0.8l0,0c-0.2-0.5-0.7-0.8-1-1l0,0
	c-0.6-0.3-1.3-0.3-1.9-0.2l0,0c-0.6,0.2-1.2,0.4-1.6,0.5c0,0,0,0.1,0,0.1c-0.7,0.1-1.4,0.1-1.9-0.1c0-0.1,0-0.2-0.1-0.4l0,0
	c0-1.1,0.1-2.2,0.1-3.5l0,0c0.1-1.8,0.1-3.7-0.1-5.5v-0.1c-0.6-3.2-2.6-5.9-5.2-7.7c-1.9-1.3-4.1-2.1-6.4-2.2l0,0
	c-0.8-0.1-1.5-0.1-2.3-0.1c-3,0.1-6.2,0.9-8.7,2.8c-1.9,1.4-3.3,3.3-4.3,5.5c0,0,0,0,0,0c-0.9,2.2-0.8,4.6-0.7,6.7l0,0
	c0,1.5,0.2,3,0.1,4.4c0,0,0,0-0.1,0.1c-0.7,0.1-1.4,0.1-2.2-0.1c0,0,0,0,0,0c-0.5-0.1-1-0.3-1.6-0.5c0,0,0,0-0.1,0
	c-0.6-0.2-1.2,0-1.6,0.4h0c0,0,0,0,0,0c-0.4,0.2-0.9,0.6-0.9,1.4c0,0,0,0.1,0,0.1h0c0.1,0.4,0.3,0.7,0.5,0.9
	c0.2,0.2,0.4,0.3,0.6,0.4c0,0.1,0,0.1,0,0.1c1.2,0.7,2.4,1,3.4,1.5l0,0c0.8,0.3,1.4,0.8,1.5,1.5c0.2,0.8-0.1,1.7-0.6,2.6l0,0
	c-1.2,2.4-3,4.4-5.2,6c-1.1,0.8-2.4,1.3-3.8,1.7h0c-0.3,0.1-1,0.2-1.4,0.8c0,0-0.1,0.1-0.1,0.2c-0.1,0.4,0,0.8,0.2,1
	c0.2,0.2,0.4,0.4,0.6,0.5l0,0c1.1,0.7,2.4,0.9,3.5,1.2l0,0c0.9,0.2,1.6,0.3,2.2,0.5c0,0.1,0.1,0.2,0.2,0.6c0.2,0.6,0.3,1.4,0.5,2.2
	c0.1,0.2,0.2,0.4,0.5,0.4c0.5,0.1,0.8-0.1,0.8-0.1c0,0,0,0,0,0c1.9-0.3,3.9-0.6,5.6-0.2l0,0c1.9,0.5,3.4,1.7,5.3,2.8l0,0
	c1.2,0.8,2.6,1.5,4.2,1.5l0,0c1.2,0.1,2.4,0,3.6-0.1l0,0c1-0.1,1.9-0.4,2.8-0.9l0.1-0.1c1.9-1,3.5-2.4,5.4-3.2l0,0
	c0.6-0.2,1.4-0.2,2.2-0.2l0,0c1.5,0,3.1,0.1,4.6,0.2c0.1,0,0.1,0,0.2,0c0.2,0,0.4-0.2,0.5-0.3c0.1-0.1,0.1-0.3,0.2-0.4
	c0.1-0.1,0.1-0.2,0-0.1c0.1,0,0.1-0.1,0.1-0.1c0.2-0.9,0.4-1.8,0.9-2.2c0.2-0.2,0.5-0.3,1-0.3c0,0,0.1,0,0.1,0
	c1.3-0.2,2.5-0.6,3.6-1c0-0.1,0-0.1,0.1-0.1c0.4-0.2,1-0.4,1.4-1c0,0,0,0,0.1,0h-0.1C75.6,62.8,75.4,62.2,74.9,61.9L74.9,61.9z"/>
</svg>
